inDegrees=no
num_controls=7
num_derivatives=13
num_iterations=98
num_multipliers=7
num_parameters=0
num_slacks=7
num_states=26
objective=0.477827
objective_accelerations=0.043411
objective_balance=0.003854
objective_effort=0.040279
objective_height=0.384579
objective_ligament=0.005704
solver_duration=1249.554245
status=Solve_Succeeded
success=true
DataType=double
version=3
OpenSimVersion=4.5
endheader
time	/jointset/ground_pelvis/pelvis_tilt/value	/jointset/ground_pelvis/pelvis_tx/value	/jointset/ground_pelvis/pelvis_ty/value	/jointset/hip_l/hip_flexion_l/value	/jointset/hip_l/hip_adduction_l/value	/jointset/hip_l/hip_rotation_l/value	/jointset/back/lumbar_extension/value	/jointset/patellofemoral_l/patellar_flexion_l/value	/jointset/knee_l/knee_flexion_l/value	/jointset/knee_l/knee_adduction_l/value	/jointset/knee_l/knee_rotation_l/value	/jointset/ankle_l/ankle_angle_l/value	/jointset/subtalar_l/subtalar_angle_l/value	/jointset/ground_pelvis/pelvis_tilt/speed	/jointset/ground_pelvis/pelvis_tx/speed	/jointset/ground_pelvis/pelvis_ty/speed	/jointset/hip_l/hip_flexion_l/speed	/jointset/hip_l/hip_adduction_l/speed	/jointset/hip_l/hip_rotation_l/speed	/jointset/back/lumbar_extension/speed	/jointset/patellofemoral_l/patellar_flexion_l/speed	/jointset/knee_l/knee_flexion_l/speed	/jointset/knee_l/knee_adduction_l/speed	/jointset/knee_l/knee_rotation_l/speed	/jointset/ankle_l/ankle_angle_l/speed	/jointset/subtalar_l/subtalar_angle_l/speed	/forceset/tau_hip_flexion_l	/forceset/tau_hip_adduction_l	/forceset/tau_hip_rotation_l	/forceset/tau_knee_flexion_l	/forceset/tau_ankle_angle_l	/forceset/tau_subtalar_angle_l	/forceset/tau_lumbar_extension	lambda_cid13_p0	lambda_cid13_p1	lambda_cid13_p2	lambda_cid13_p3	lambda_cid13_p4	lambda_cid13_p5	lambda_cid14_p0	/jointset/ground_pelvis/pelvis_tilt/accel	/jointset/ground_pelvis/pelvis_tx/accel	/jointset/ground_pelvis/pelvis_ty/accel	/jointset/hip_l/hip_flexion_l/accel	/jointset/hip_l/hip_adduction_l/accel	/jointset/hip_l/hip_rotation_l/accel	/jointset/back/lumbar_extension/accel	/jointset/patellofemoral_l/patellar_flexion_l/accel	/jointset/knee_l/knee_flexion_l/accel	/jointset/knee_l/knee_adduction_l/accel	/jointset/knee_l/knee_rotation_l/accel	/jointset/ankle_l/ankle_angle_l/accel	/jointset/subtalar_l/subtalar_angle_l/accel	gamma_cid13_p0	gamma_cid13_p1	gamma_cid13_p2	gamma_cid13_p3	gamma_cid13_p4	gamma_cid13_p5	gamma_cid14_p0
1	-0.1110108867360528	-0.06401709141334837	0.6876246015317157	1.317072345252914	-0.3284620217240026	0.06713729503318192	-0.9599301333667335	1.371766981070915	1.371766981070984	-0.07124186702244276	-0.1745276197124959	0.2609848509758746	0.05654403895872199	0.1051400326651577	0.02511913905134986	0.06868381667688382	-0.2956849407996744	-0.006291921489056076	-0.06538709051534199	-0.0004474107654003565	-0.1572966483165351	-0.1572966483165081	0.0004363878285335353	-3.741256249699522e-05	0.02479647268137112	0.003509254708487148	-0.3738606229414091	0.003339450750464302	0.0007231370781311494	-0.3692064215020077	0.04606792874177578	0.03635835517157739	0.4259228320074992	-35.91724533323152	-9.592065704841348	1.178281852288198	13.26402552416329	-798.0651649450003	-79.92905845412045	-0.04195362078762262	0.8441126669234429	0.005724886344509078	1.50640218254251	-4.920299671683184	-0.1222948636682259	-1.657332821705745	0.06072512449772528	-4.900490404542856	-4.900490404542693	-0.3136436302575336	-0.01302001492898044	-1.169871948777854	-0.6311763782168521	-9.209261371267008e-09	1.774498390796168e-08	6.534555073150566e-08	6.151422530586418e-09	-2.330559487328125e-08	1.18888374568992e-07	-1.661130628020163e-08
1.01	-0.1099177148916209	-0.06376557257776276	0.688386517819201	1.313870480732444	-0.3285302802391937	0.06639974270048545	-0.9599309618390177	1.369949417728077	1.369949417728118	-0.07125122506675534	-0.1745277371597367	0.2611744220025676	0.05654863809581537	0.113488830349022	0.02518968532029549	0.08368552222217243	-0.3446553503218374	-0.007350049437760315	-0.0821148825011111	0.0002951231724949404	-0.2062040972751803	-0.2062040972751654	-0.00230509663235015	1.288068931586892e-05	0.01310364104588781	-0.002582893861749584	-0.3728308342176237	0.003338554973558729	0.0006534955900337115	-0.3690556851895695	0.04605435842903301	0.03659368461864821	0.4253387549638214	-35.87196323467502	-9.72410600712003	1.22435713444149	13.11585354495324	-797.543106630715	-80.13666197488548	-0.04198472004661879	0.8294353362048081	0.00848070184618069	1.494961000239793	-4.880522539724844	-0.09611984625117465	-1.679245963546976	0.08302855931408899	-4.884079119986466	-4.884079119988352	-0.2539763891810947	0.01392035945038864	-1.171102584019452	-0.5972667711606879	-1.599878990211239e-08	1.041689092675304e-08	9.436832717705854e-08	1.301323566358977e-08	-2.968841134386868e-08	1.372095627244e-07	-2.281315314438774e-08
1.02	-0.1087412206669346	-0.06351319603855238	0.6892980324140829	1.310179889927302	-0.3286088296510271	0.06549516373262193	-0.9599239627658589	1.36764313849996	1.367643138499974	-0.07128791306271264	-0.1745273784016205	0.2612466419502885	0.05649250921225984	0.1218045087163645	0.02529067977630947	0.09860347815616706	-0.3934301977336782	-0.008350100817651569	-0.09879241754826125	0.00111809834553735	-0.2550398253722715	-0.2550398253722683	-0.005029602500325147	5.782850968676267e-05	0.001326256886968305	-0.008636349421331685	-0.371801045493841	0.003337659196652282	0.000583854101946745	-0.3689049488771319	0.04604078811629009	0.03682901406571774	0.4247546779201409	-35.83844429070988	-9.852070309228619	1.267479297794463	13.02622531818455	-797.1679740485029	-80.3184987716819	-0.04201433810483118	0.8374888036190848	0.01181452375817682	1.489652260283709	-4.88118724961873	-0.1106795499056284	-1.647281433981956	0.0768133715270104	-4.886146232232071	-4.886146232231794	-0.3102479116757964	-0.01408910121737568	-1.186782453465101	-0.6234377760859297	-2.326650828665528e-08	1.4112222818589e-09	1.224038869161402e-07	1.988541240948035e-08	-3.644377929173599e-08	1.553632030669221e-07	-2.922999039856148e-08
1.03	-0.107482106420693	-0.06325938002299354	0.6903582792230216	1.306002669862567	-0.3286970833284972	0.06442416594717076	-0.9599062760514856	1.364849020543053	1.364849020543049	-0.07135180326982381	-0.1745265837743632	0.2612010801182157	0.05637623567950676	0.1299766470108121	0.02550563217773742	0.1134294021874913	-0.4419693363424521	-0.00929295482911841	-0.1153929355918369	0.002637638587673055	-0.3037567783183316	-0.3037567783183	-0.00774928807444419	9.574552333178772e-05	-0.01041149211784715	-0.01459576649652238	-0.3724670379754685	0.003397115791332353	0.0004733262872029572	-0.3681079523912928	0.04574598187358468	0.03728356659300189	0.4261466152701523	-35.92223166326482	-10.07893228925718	1.354043453816959	12.47234946792283	-797.7580580425811	-80.58579742382619	-0.04204707113074588	0.8008197036784107	0.03130731786305804	1.476581576388876	-4.83360924865414	-0.08495019179709824	-1.664334884437067	0.2222834643888049	-4.860414503457829	-4.860414503453661	-0.2529739014042306	0.01196418566783701	-1.16320317236664	-0.5788213899737555	-3.053910615950121e-08	-7.61156448205245e-09	1.504293730153598e-07	2.675769490652284e-08	-4.320294878528982e-08	1.735151337378842e-07	-3.564902143222489e-08
1.04	-0.1061425221192446	-0.06300242013951483	0.6915662890926398	1.301341391995302	-0.3287945379190894	0.06318758340230329	-0.959866842112204	1.361568544121152	1.36156854412114	-0.0714429193369	-0.1745255635603682	0.2610389543864192	0.05620104243265432	0.1378985197580911	0.02591945336028309	0.1281560902920839	-0.4902417582371261	-0.0101902834417815	-0.1319093694310824	0.005467543383090657	-0.3523115183709865	-0.3523115183709252	-0.01047477449353323	0.0001029458574718477	-0.02198652305773778	-0.02042029224123872	-0.3731330304571454	0.003456572386006569	0.0003627984724713969	-0.3673109559054568	0.04545117563088643	0.03773811912028123	0.4275385526201205	-36.01800754160622	-10.30159668720297	1.437541302669251	11.97554447187981	-798.4988755675142	-80.82764742515782	-0.04207722499125882	0.787435694185376	0.05158827998171865	1.469805074937393	-4.827843906798725	-0.1015744701448835	-1.63046459311594	0.3388862821836984	-4.853703653550991	-4.853703653550504	-0.3114080806697981	-0.02023243711838098	-1.154238840480142	-0.5964595099910657	-3.517475810251898e-08	-1.833670242962044e-08	1.762592837054907e-07	2.865280952534199e-08	-4.923346701431502e-08	1.811768938454466e-07	-4.089403723042898e-08
1.05	-0.1047249730401027	-0.06274036412408782	0.692921013664535	1.296198866881617	-0.3289006885382119	0.06178632970974701	-0.9597929328688604	1.357803316401481	1.357803316401416	-0.07156134800955896	-0.1745245865339787	0.2607617364492222	0.05596828699374348	0.1455677278072025	0.02652124639251187	0.1427665475501982	-0.5382028190065106	-0.01102600151492913	-0.1483237854410093	0.009497398705225117	-0.4007086239881825	-0.4007086239881367	-0.01320953372452818	9.252744875396555e-05	-0.03344525615828816	-0.02610568024172369	-0.3730716724145845	0.003490791329681614	0.0002243170539643644	-0.3664845003635711	0.04549118345169506	0.03823726728666502	0.4282512060792028	-35.96853047017676	-10.57309965220898	1.533437783790566	11.43079946369171	-798.6413492707021	-81.13702661646261	-0.04212395248921651	0.7501248078016364	0.06890541100276484	1.45331346180897	-4.771175239711113	-0.07251498545634123	-1.64433018703012	0.4624991700496896	-4.828894506467634	-4.828894506470252	-0.2543192370777856	0.00860895610181811	-1.139921900837568	-0.5508301058441566	-3.972800548522963e-08	-2.91150388516777e-08	2.020205826640875e-07	3.03923876479667e-08	-5.52412148913237e-08	1.885108361229027e-07	-4.610236505252496e-08
1.06	-0.1032320395909654	-0.06247140405910665	0.6944211722911233	1.290578543544688	-0.3290147852399781	0.06022145184066983	-0.9596732322697283	1.353554881527505	1.353554881527395	-0.07170708615307993	-0.174523702591906	0.2603702849098206	0.05567942734267455	0.1529753937574175	0.02730026327111296	0.1572429012307189	-0.5858014028840096	-0.01177949997034341	-0.1646342047348998	0.01462581454021427	-0.4489529492319288	-0.4489529492319009	-0.01593666866605963	8.432899404778256e-05	-0.04483324349864216	-0.03164113467288726	-0.3730103143720589	0.003525010273353227	8.583563545771624e-05	-0.365658044821688	0.04553119127250885	0.03873641545304653	0.4289638595382541	-35.93116525101869	-10.84032561542723	1.626189239086755	10.94095711844365	-798.9369758076488	-81.4222696281893	-0.04216734981524203	0.7351272744060979	0.08703304925618421	1.442984359418646	-4.755348528421617	-0.08513054659822321	-1.609665249908647	0.5585983847546129	-4.823147578861059	-4.823147578861048	-0.3098832227770997	-0.01978844631605821	-1.140089688440867	-0.5664727961267935	-4.466904424647097e-08	-4.010906152368919e-08	2.264342418289095e-07	3.260621005756201e-08	-6.110122631549785e-08	1.958913561002064e-07	-5.129281875415072e-08
1.07	-0.1016661972320603	-0.06219374682311412	0.6960653780343929	1.28448400143395	-0.3291359822602365	0.05849404831717641	-0.9594969280326731	1.348824860132716	1.348824860132697	-0.07188006601136326	-0.1745228995126401	0.2598653145642698	0.05533600499553964	0.1601622108935433	0.02826282471356988	0.1715712978642081	-0.63305025985087	-0.01244311826179101	-0.1808268059036086	0.0208026270907973	-0.497017092046439	-0.4970170920463932	-0.01865480821756555	7.62002195371101e-05	-0.05614818130172418	-0.03701314715710225	-0.372651499745185	0.003565465637412296	-8.43980436447799e-05	-0.3645720099426653	0.04567367421414564	0.03931670107984522	0.4294133863955559	-35.82894836283526	-11.16297250770422	1.737860004832828	10.35897079944798	-798.8203849631918	-81.76524794747748	-0.04222176277543043	0.7058248564372753	0.1056208103861795	1.423711408029139	-4.701146263942106	-0.05448560407191597	-1.621150263881893	0.672361823128851	-4.792900610960482	-4.792900610957776	-0.2521342005566795	0.008717140804013895	-1.125302859026551	-0.518058495651285	-4.9630710208698e-08	-5.11145568685706e-08	2.507762180259776e-07	3.484525822710257e-08	-6.695337941771273e-08	2.03274353614736e-07	-5.648232170468763e-08
